<svg xmlns="http://www.w3.org/2000/svg" xmlns:xlink="http://www.w3.org/1999/xlink" width="296.917" height="275.01" viewBox="0 0 296.917 275.01"><defs><style>.a{fill:none;stroke:#fff;stroke-linecap:round;stroke-linejoin:round;stroke-width:2px;}.b{fill:#e69602;}.c{fill:url(#a);}.d{fill:url(#b);}.e{fill:url(#c);}.f{fill:url(#d);}.g{fill:url(#e);}.h{fill:url(#f);}.i{fill:url(#g);}.j{fill:url(#h);}.k{fill:url(#i);}.l{fill:url(#j);}.m{fill:url(#k);}.n{fill:url(#l);}.o{fill:url(#m);}.p{fill:#ffe9a8;}.q{fill:#4f1705;}.r{fill:#4f0412;}</style><linearGradient id="a" x1="-184.842" y1="-35.716" x2="-184.003" y2="-35.716" gradientUnits="objectBoundingBox"><stop offset="0" stop-color="#ffd500"/><stop offset="1" stop-color="#ffd500"/></linearGradient><linearGradient id="b" x1="-28.5" y1="-135.856" x2="-27.483" y2="-135.856" xlink:href="#a"/><linearGradient id="c" x1="-5.547" y1="-38.164" x2="-4.76" y2="-38.164" xlink:href="#a"/><linearGradient id="d" x1="-447.963" y1="-33.782" x2="-446.166" y2="-33.782" xlink:href="#a"/><linearGradient id="e" x1="-71.334" y1="-208.439" x2="-70.297" y2="-208.439" xlink:href="#a"/><linearGradient id="f" x1="-17.522" y1="-39.107" x2="-16.498" y2="-39.107" xlink:href="#a"/><linearGradient id="g" x1="-294.444" y1="190.566" x2="-293.604" y2="190.566" xlink:href="#a"/><linearGradient id="h" x1="-1055.255" y1="-1692.249" x2="-1054.23" y2="-1692.249" xlink:href="#a"/><linearGradient id="i" x1="-260.583" y1="-323.804" x2="-259.571" y2="-323.804" xlink:href="#a"/><linearGradient id="j" x1="-244.947" y1="-90.98" x2="-244.107" y2="-90.98" xlink:href="#a"/><linearGradient id="k" x1="-65.065" y1="-1631.695" x2="-64.026" y2="-1631.695" xlink:href="#a"/><linearGradient id="l" x1="-15.041" y1="-504.87" x2="-14.081" y2="-504.87" xlink:href="#a"/><linearGradient id="m" x1="0.5" y1="1" x2="0.5" gradientUnits="objectBoundingBox"><stop offset="0" stop-color="#ff6e00"/><stop offset="1" stop-color="#ffd500"/></linearGradient></defs><g transform="translate(-94.052 22.581)"><path class="a" d="M157.321,199.144c-2.094-2.753-1.573-4.43-3.674-5.714-1.511-.924-3.116-.873-4.9-.816a12.311,12.311,0,0,0-6.123,1.632,13.781,13.781,0,0,0-4.9,5.715c-3.394,7.664,1.834,7.368,11.894,7.028,4.565-.154,13.413.426,13.413-2.538C163.035,201.007,160,202.662,157.321,199.144Z" transform="translate(-18.614 -79.28)"/><path class="a" d="M578.721,193.558c3.77-3.61,24.521,2.809,12.557,9.191-4.491,2.4-21.855,1.831-23.474-2.837C566.306,195.59,576.683,195.509,578.721,193.558Z" transform="translate(-206.729 -79.249)"/><path class="a" d="M438.239,105.288c6.878-6.586,8.367,2.77,13.226,2.221,11.183-1.263-2.409,6.056-6.565,6.989-16.5,3.7-16.055-9.709-11.577-7.328C438.89,110.131,434.815,108.566,438.239,105.288Z" transform="translate(-146.928 -40.144)"/><g transform="translate(190.433 71.175)"><g transform="translate(0 0)"><path class="b" d="M304.855,139.613,276.029,154.17l1.345,2.662h0c3.544,6.441,12.621,8.479,20.506,4.5s11.65-12.491,8.556-19.173h0l-1.345-2.663Z" transform="translate(-269.866 -127.28)"/><ellipse class="c" cx="16.29" cy="13.672" rx="16.29" ry="13.672" transform="translate(0 14.687) rotate(-26.794)"/><ellipse class="b" cx="12.52" cy="10.506" rx="12.52" ry="10.506" transform="matrix(0.893, -0.451, 0.451, 0.893, 4.793, 15.813)"/><path class="d" d="M303.925,139.71h0a1.616,1.616,0,0,1,.714-2.171l.554-.28a1.617,1.617,0,0,1,2.172.714h0a1.617,1.617,0,0,1-.715,2.172l-.554.28A1.616,1.616,0,0,1,303.925,139.71Z" transform="translate(-281.967 -126.228)"/><path class="e" d="M294.967,148.145l-8.077-1.9-2.432,1.228,1.03,2.039h0l4.8,9.5,3.44-1.737-3.341-6.615,3.18.747,8.043,1.887,2.432-1.228-1.031-2.042Z" transform="translate(-273.545 -130.228)"/></g></g><g transform="translate(358.823 24.044)"><g transform="translate(0 0)"><path class="b" d="M566.917,108.989l-.524,1.61h0c-1.068,4.039,4.5,9.554,12.065,12.017s14.313.963,15.821-2.941h0l.611-2.025Z" transform="translate(-564.943 -101.834)"/><ellipse class="f" cx="6.851" cy="14.673" rx="6.851" ry="14.673" transform="translate(0 13.029) rotate(-71.972)"/><ellipse class="b" cx="5.265" cy="11.277" rx="5.265" ry="11.277" transform="matrix(0.309, -0.951, 0.951, 0.309, 3.72, 12.572)"/><path class="g" d="M599.62,113.375h0c.138-.425.87-.568,1.635-.32l.532.173c.765.249,1.272.8,1.134,1.221h0c-.138.425-.87.569-1.635.32l-.532-.173C599.989,114.347,599.482,113.8,599.62,113.375Z" transform="translate(-579.494 -103.555)"/><path class="h" d="M587.913,111.705l-4.616-4.313-2.334-.76-.354,1.088,0,0-1.651,5.071,3.3,1.074,1.149-3.531,1.817,1.7,4.6,4.294,2.334.76.355-1.09Z" transform="translate(-570.486 -100.805)"/></g></g><g transform="translate(94.052 57.689)"><path class="b" d="M124.98,86.4l-.495-2.057h0c-1.284-3.983-7.935-5.863-15.628-3.833S95.294,87.734,96.13,91.826h0l.432,1.638Z" transform="translate(-94.925 -79.689)"/><ellipse class="i" cx="14.673" cy="6.851" rx="14.673" ry="6.851" transform="translate(0 7.798) rotate(-14.775)"/><ellipse class="b" cx="11.277" cy="5.265" rx="11.277" ry="5.265" transform="translate(3.688 8.465) rotate(-14.775)"/><path class="j" d="M130.577,99.017l.541-.143c.778-.205,1.5-.021,1.614.412h0c.114.432-.424.949-1.2,1.154l-.541.143c-.778.205-1.5.02-1.614-.412h0C129.261,99.738,129.8,99.222,130.577,99.017Z" transform="translate(-109.464 -88.027)"/><path class="k" d="M122.675,91.049l-.292-1.108-2.373.626-4.833,4.027-1.91,1.592-.947-3.591-3.356.885,1.36,5.157,0,0,.292,1.107,2.373-.626,4.853-4.044Z" transform="translate(-100.56 -84.164)"/></g><g transform="translate(95.048 -331.703)"><g transform="translate(124.11 309.122)"><path class="b" d="M168.258,317.35l-41.7,12.557,1.064,3.528h0c1.334,3.212,11.414,3.084,22.82-.35s19.9-8.893,19.225-12.309h0l-1.064-3.528Z" transform="translate(-124.696 -311.072)"/><ellipse class="l" cx="21.971" cy="6.439" rx="21.971" ry="6.439" transform="translate(0 12.668) rotate(-16.756)"/><ellipse class="b" cx="16.886" cy="4.948" rx="16.886" ry="4.948" transform="translate(5.299 12.63) rotate(-16.756)"/><path class="m" d="M159.913,320.142h0c-.122-.4.715-1.011,1.868-1.358l.8-.241c1.153-.347,2.186-.3,2.307.1h0c.122.4-.715,1.01-1.867,1.357l-.8.242C161.067,320.589,160.034,320.544,159.913,320.142Z" transform="translate(-132.7 -311.327)"/><path class="n" d="M152.438,324.173l-8.931.066-3.519,1.06.31,1.03h0l1.445,4.8,4.977-1.5-1.006-3.342,3.516-.025,8.894-.066,3.519-1.06-.311-1.032Z" transform="translate(-127.921 -312.718)"/></g></g><g transform="translate(-107.652 -31.517)"><path class="o" d="M448.8,248.86l-.57,1.362-.678,1.3a15.181,15.181,0,0,1-3.444,4.375,8.292,8.292,0,0,1-3.55,1.8c.013-.034.028-.067.041-.1a16.676,16.676,0,0,0,.762-3.4,14.618,14.618,0,0,0-.049-3.578,14.951,14.951,0,0,0-.971-3.476,15.682,15.682,0,0,0-4.177-5.735,14.568,14.568,0,0,0-3.02-2.031,10.588,10.588,0,0,0-1.851-.733,6.263,6.263,0,0,0-2.566-.239,7.711,7.711,0,0,0-1.373.382,11.642,11.642,0,0,0-1.09.584,8.593,8.593,0,0,0-1.646,1.447,9.927,9.927,0,0,0-2.011,3.475,10.693,10.693,0,0,0,.309,7.663,14.447,14.447,0,0,0,4.424,5.583,20.869,20.869,0,0,0,5.856,3.244c.305.111.62.209.937.3-1.278,1.739-2.852,3.784-5.284,3.363a19.715,19.715,0,0,1-4-1.545c-7.954-22.881-30.667-61.5-93.383-61.5-11.668,0-22.268,4.122-30.051,7.285-.293-.128-5.137-2.492-5.137-2.492s-32.585-.415-37.423,12.148c-6.73,17.476-1.739,52.69,7.832,60.83,3.56,3.029,11.1,3.034,18.227,1.836,0-.052,27.5-1.236,43.162-1.425,0,.012.008.023.011.034a4.231,4.231,0,0,0,4.3,4.621,4.464,4.464,0,0,0,1.958-.421,4.072,4.072,0,0,0,2.951-1.278,4.017,4.017,0,0,0,.668-.258c1.294-.463,2.5-1.19,3.754-1.736a28.353,28.353,0,0,1,2.7-.995c26.255-.051,34.043-.1,54.456-.131,5.439,1.2,10.864,2.539,16.514,2.3a4.242,4.242,0,0,0,3.746-2.334l9.8-.015a70.575,70.575,0,0,0-1.991-9.686c.777,0,1.5-.031,2.066-.08,5.445-.461,8.588-5.843,9.746-8.078a10.953,10.953,0,0,0,1.365-.2,10.657,10.657,0,0,0,5.846-3.573,19.016,19.016,0,0,0,3.872-11.708C449.469,246.989,449.236,247.958,448.8,248.86ZM436,257.375a10.693,10.693,0,0,1-1.26-.513,10.226,10.226,0,0,1-1.152-.607l-.57-.317-.547-.389c-.359-.264-.745-.495-1.088-.77l-1-.851a10.249,10.249,0,0,1-2.75-3.851,5.63,5.63,0,0,1-.038-4.039,4.761,4.761,0,0,1,.979-1.665,3.372,3.372,0,0,1,.594-.527,1.412,1.412,0,0,0,.228-.123c.027.017.067-.01.064-.019a1.441,1.441,0,0,1,.4.074,5.3,5.3,0,0,1,.931.363,10.132,10.132,0,0,1,1.956,1.282,11.051,11.051,0,0,1,2.966,3.765A10.664,10.664,0,0,1,436,257.375Z" transform="translate(-0.804 -1.144)"/><g transform="translate(252.073 203.464)"><path class="p" d="M255.512,209.612s-5.758,33.237-2.371,48.7,9.459,23.185,16.935,24.352c38.345,5.982,25.407-75.583,25.407-75.583A74.911,74.911,0,0,0,255.512,209.612Z" transform="translate(-252.073 -205.499)"/><g transform="translate(4.742 15.591)"><g transform="translate(16.781)"><ellipse class="q" cx="16.037" cy="5.829" rx="16.037" ry="5.829" transform="translate(0 35.051) rotate(-88.403)"/><path class="q" d="M282.831,228.465a3.246,3.246,0,0,1,.322-1.042,3.1,3.1,0,0,1,.678-.9,4.578,4.578,0,0,1,.925-.664,4.449,4.449,0,0,1,1.085-.433l.009,0,.067,0a3.9,3.9,0,0,1,2.722,1.18,9.957,9.957,0,0,1,1.708,2.275,22.13,22.13,0,0,1,1.946,5.145,38.691,38.691,0,0,1,.9,5.363,44.713,44.713,0,0,1-.3,10.808,38.472,38.472,0,0,1-1.192,5.3,22.061,22.061,0,0,1-2.231,5.029,9.959,9.959,0,0,1-1.832,2.175,3.892,3.892,0,0,1-2.785,1.025l-.048,0a3.306,3.306,0,0,1-1.083-.5,4.137,4.137,0,0,1-.844-.754,4.555,4.555,0,0,1-.935-1.949,5.192,5.192,0,0,0,.547.9,4.463,4.463,0,0,0,.706.73,3.6,3.6,0,0,0,.842.511,3.118,3.118,0,0,0,.886.246l-.048,0a2.991,2.991,0,0,0,1.924-1.085,8.615,8.615,0,0,0,1.333-2.047,22.994,22.994,0,0,0,1.639-4.8,41.652,41.652,0,0,0,.884-5.074,59.53,59.53,0,0,0,.288-10.329,41.056,41.056,0,0,0-.6-5.115,23,23,0,0,0-1.369-4.888,8.662,8.662,0,0,0-1.217-2.118,3,3,0,0,0-1.862-1.189l.075,0a4.774,4.774,0,0,0-.949.209,4.047,4.047,0,0,0-.9.426,3.324,3.324,0,0,0-.762.668A3.124,3.124,0,0,0,282.831,228.465Z" transform="translate(-280.091 -225.424)"/></g><g transform="translate(0 1.702)"><ellipse class="q" cx="5.252" cy="14.775" rx="5.252" ry="14.775" transform="translate(0.632 3.14) rotate(-2.17)"/><path class="q" d="M267.6,230.4a2.884,2.884,0,0,0-.483-.825,3.016,3.016,0,0,0-.694-.6,3.588,3.588,0,0,0-.822-.38,4.263,4.263,0,0,0-.856-.178l.077,0a2.65,2.65,0,0,0-1.639,1.128,8.037,8.037,0,0,0-1.049,1.968,21.8,21.8,0,0,0-1.15,4.5,39.151,39.151,0,0,0-.47,4.7,46.45,46.45,0,0,0-.016,4.739,46.938,46.938,0,0,0,.376,4.725,39.427,39.427,0,0,0,.824,4.647,21.9,21.9,0,0,0,1.487,4.4,8.042,8.042,0,0,0,1.195,1.884,2.651,2.651,0,0,0,1.718,1l-.048,0a2.751,2.751,0,0,0,.791-.227,3.231,3.231,0,0,0,.754-.471,4.236,4.236,0,0,0,.633-.671,4.88,4.88,0,0,0,.49-.82,4.21,4.21,0,0,1-.8,1.805,3.82,3.82,0,0,1-.753.714,2.949,2.949,0,0,1-.988.483l-.049,0a3.558,3.558,0,0,1-2.592-.946,9.348,9.348,0,0,1-1.689-2.008,20.662,20.662,0,0,1-2.076-4.617,36.06,36.06,0,0,1-1.132-4.868,41.408,41.408,0,0,1-.376-9.929,36.437,36.437,0,0,1,.761-4.939,20.728,20.728,0,0,1,1.721-4.761,9.311,9.311,0,0,1,1.531-2.131,3.555,3.555,0,0,1,2.513-1.14l.068,0,.009,0a3.951,3.951,0,0,1,1,.4,4.118,4.118,0,0,1,.841.618,2.821,2.821,0,0,1,.61.827A3.03,3.03,0,0,1,267.6,230.4Z" transform="translate(-258.133 -227.598)"/></g></g></g><path class="p" d="M376.858,196.138s-13.234,51.32,13.879,56.484,41.314-18.4,46.156-32.922C413.976,201.947,385.895,198.4,376.858,196.138Z" transform="translate(-26.435 0)"/><path class="r" d="M285.133,297.465c3.924-.7,7.792-1.409,11.563-2.4l1.411-.376,1.391-.429c.929-.281,1.855-.563,2.747-.931.9-.344,1.819-.644,2.684-1.063l1.316-.583c.442-.188.846-.445,1.271-.664l1.273-.659c.419-.228.808-.5,1.214-.751l1.207-.763c.375-.29.745-.586,1.128-.866s.779-.549,1.128-.869l1.046-.962a24.958,24.958,0,0,0,1.97-2.056,28.2,28.2,0,0,0,5.453-10.194,21.337,21.337,0,0,1-4.007,11.318,17.986,17.986,0,0,1-1.957,2.383l-1.078,1.108c-.361.369-.779.671-1.166,1.009s-.8.65-1.2.974l-1.284.848c-.431.276-.85.579-1.294.833l-1.349.729a39.842,39.842,0,0,1-11.516,3.748A50.1,50.1,0,0,1,285.133,297.465Z" transform="translate(-7.19 -16.91)"/><path class="r" d="M328.5,267.4a7.2,7.2,0,0,0,2.087,3.944,5.634,5.634,0,0,0,.838.621,5.138,5.138,0,0,0,.936.391,5.964,5.964,0,0,0,1.981.243h.068a1.186,1.186,0,1,1-.009,2.372,1.237,1.237,0,0,1-.282-.035,7.984,7.984,0,0,1-2.525-.995,6.748,6.748,0,0,1-1.072-.819,6.993,6.993,0,0,1-.834-1.023,7.115,7.115,0,0,1-.98-2.308A8.332,8.332,0,0,1,328.5,267.4Z" transform="translate(-16.616 -15.498)"/><g transform="translate(317.609 210.498)"><g transform="translate(11.42)"><path class="r" d="M350.416,214.588a2.39,2.39,0,0,1,1.891.246,3.219,3.219,0,0,1,1.58,3.233,2.636,2.636,0,0,1-.9,1.657,12.711,12.711,0,0,1-.928-1.4c-.212-.4-.424-.73-.576-1.079s-.315-.693-.481-1.11Z" transform="translate(-350.416 -214.489)"/></g><ellipse class="q" cx="4.678" cy="6.92" rx="4.678" ry="6.92" transform="translate(0 7.963)"/></g><g transform="translate(398.074 266.309)"><path class="p" d="M457.745,287.683s2.844-.07,7.146,4.865l-4.413,1.965,3.964,5.244s-2.747,2.141-8.407.094Z" transform="translate(-442.43 -286.217)"/><path class="r" d="M449.322,285.81a20.989,20.989,0,0,1,6.7,1.648,18.26,18.26,0,0,1,3.115,1.667,15.463,15.463,0,0,1,2.762,2.323,1.013,1.013,0,0,1-.286,1.616l-.08.038c-.725.349-1.448.707-2.177,1.049l-2.2,1.006.451-1.747c.67.866,1.344,1.729,1.988,2.616l1.954,2.643.027.037a1.106,1.106,0,0,1-.834,1.762c-1.9.1-3.751.1-5.622.062-1.866-.059-3.728-.188-5.584-.374-1.854-.207-3.7-.484-5.526-.867a39,39,0,0,1-5.369-1.515c1.84.258,3.668.454,5.5.591,1.833.106,3.66.218,5.493.218q2.744.047,5.485-.052c1.82-.046,3.665-.144,5.445-.305l-.807,1.8-2.01-2.6c-.678-.861-1.323-1.745-1.974-2.626l-.015-.02a1.142,1.142,0,0,1,.24-1.6,1.175,1.175,0,0,1,.225-.13l2.218-.959c.741-.313,1.491-.61,2.236-.916l-.365,1.654a18.975,18.975,0,0,0-2.258-2.24,24.406,24.406,0,0,0-2.67-1.884A36.37,36.37,0,0,0,449.322,285.81Z" transform="translate(-438.649 -285.81)"/></g><g transform="translate(321.347 266.953)"><path class="p" d="M355.091,302.672s-2.078,1.942-8.572,1.114l1.991-4.4-6.446-1.283s.629-3.426,6.219-5.658Z" transform="translate(-340.917 -287.898)"/><path class="r" d="M359.215,299.418a18.8,18.8,0,0,1-2.9,1.855,21.9,21.9,0,0,1-3.2,1.369,18.229,18.229,0,0,1-3.436.826,15.455,15.455,0,0,1-3.607.1,1.014,1.014,0,0,1-.861-1.4l.034-.081c.31-.743.611-1.491.929-2.231l.972-2.211.825,1.6c-2.156-.391-4.3-.841-6.441-1.309l-.062-.013a1.1,1.1,0,0,1-.84-1.309,1.114,1.114,0,0,1,.238-.479c.893-1.048,1.8-2,2.754-2.959.962-.933,1.956-1.834,3-2.678a27.614,27.614,0,0,1,3.317-2.3,14.481,14.481,0,0,1,3.693-1.574,23.288,23.288,0,0,0-3.15,2.335c-.978.851-1.9,1.761-2.8,2.7-.907.923-1.766,1.9-2.607,2.88s-1.687,1.984-2.445,2.988l-.664-1.8c2.156.388,4.309.794,6.451,1.258l.031.007a1.142,1.142,0,0,1,.875,1.358,1.187,1.187,0,0,1-.081.24l-1.019,2.19c-.346.727-.709,1.447-1.062,2.171l-.826-1.478a19.054,19.054,0,0,0,3.176.172,24.426,24.426,0,0,0,3.247-.368A36.357,36.357,0,0,0,359.215,299.418Z" transform="translate(-340.599 -286.634)"/></g></g></g></svg>