<svg xmlns="http://www.w3.org/2000/svg" 
    xmlns:xlink="http://www.w3.org/1999/xlink" width="168.75" height="50" viewBox="0 0 168.75 50">
    <defs>
        <style>.a{fill:#a6a6a6;}.b,.i,.j{fill:#fff;}.c{fill:url(#a);}.d{fill:url(#b);}.e{fill:url(#c);}.f{fill:url(#d);}.g{opacity:0.2;}.g,.h,.i{isolation:isolate;}.h{opacity:0.12;}.i{opacity:0.25;}.j{stroke:#fff;stroke-miterlimit:10;stroke-width:0.2px;}</style>
        <linearGradient id="a" x1="0.915" y1="6.614" x2="-0.383" y2="5.945" gradientUnits="objectBoundingBox">
            <stop offset="0" stop-color="#00a0ff"/>
            <stop offset="0.007" stop-color="#00a1ff"/>
            <stop offset="0.26" stop-color="#00beff"/>
            <stop offset="0.512" stop-color="#00d2ff"/>
            <stop offset="0.76" stop-color="#00dfff"/>
            <stop offset="1" stop-color="#00e3ff"/>
        </linearGradient>
        <linearGradient id="b" x1="1.076" y1="17.098" x2="-1.305" y2="17.098" gradientUnits="objectBoundingBox">
            <stop offset="0" stop-color="#ffe000"/>
            <stop offset="0.409" stop-color="#ffbd00"/>
            <stop offset="0.775" stop-color="orange"/>
            <stop offset="1" stop-color="#ff9c00"/>
        </linearGradient>
        <linearGradient id="c" x1="0.862" y1="10.863" x2="-0.501" y2="9.093" gradientUnits="objectBoundingBox">
            <stop offset="0" stop-color="#ff3a44"/>
            <stop offset="1" stop-color="#c31162"/>
        </linearGradient>
        <linearGradient id="d" x1="-0.188" y1="13.583" x2="0.421" y2="12.793" gradientUnits="objectBoundingBox">
            <stop offset="0" stop-color="#32a071"/>
            <stop offset="0.068" stop-color="#2da771"/>
            <stop offset="0.476" stop-color="#15cf74"/>
            <stop offset="0.801" stop-color="#06e775"/>
            <stop offset="1" stop-color="#00f076"/>
        </linearGradient>
    </defs>
    <rect width="168.75" height="50" rx="8" transform="translate(0)"/>
    <g transform="translate(0 0)">
        <path class="a" d="M172.5,11a5.256,5.256,0,0,1,5.25,5.25v37.5A5.256,5.256,0,0,1,172.5,59H16.25A5.256,5.256,0,0,1,11,53.75V16.25A5.256,5.256,0,0,1,16.25,11H172.5m0-1H16.25A6.268,6.268,0,0,0,10,16.25v37.5A6.268,6.268,0,0,0,16.25,60H172.5a6.268,6.268,0,0,0,6.25-6.25V16.25A6.268,6.268,0,0,0,172.5,10Z" transform="translate(-10 -10)"/>
    </g>
    <path class="b" d="M84.909,32.928a5.316,5.316,0,1,0,5.336,5.316A5.24,5.24,0,0,0,84.909,32.928Zm0,8.537a3.23,3.23,0,1,1,3-3.221A3.076,3.076,0,0,1,84.909,41.466ZM73.268,32.928A5.316,5.316,0,1,0,78.6,38.244,5.24,5.24,0,0,0,73.268,32.928Zm0,8.537a3.23,3.23,0,1,1,3-3.221A3.076,3.076,0,0,1,73.268,41.466ZM59.419,34.559v2.255h5.4a4.707,4.707,0,0,1-1.228,2.839A5.526,5.526,0,0,1,59.419,41.3a6,6,0,0,1,0-12,5.75,5.75,0,0,1,4.067,1.611l1.591-1.591a7.869,7.869,0,0,0-5.659-2.276,8.258,8.258,0,1,0,0,16.514,7.545,7.545,0,0,0,5.759-2.316,7.452,7.452,0,0,0,1.954-5.276,7.286,7.286,0,0,0-.121-1.409Zm56.635,1.751a4.941,4.941,0,0,0-4.551-3.382,5.051,5.051,0,0,0-5.014,5.316,5.2,5.2,0,0,0,5.276,5.316A5.287,5.287,0,0,0,116.2,41.2L114.383,40a3.037,3.037,0,0,1-2.617,1.47,2.706,2.706,0,0,1-2.579-1.61l7.109-2.941Zm-7.25,1.772a2.917,2.917,0,0,1,2.779-3.1,2.057,2.057,0,0,1,1.974,1.127Zm-5.779,5.155h2.335V27.611h-2.335ZM99.2,34.116h-.08a3.685,3.685,0,0,0-2.8-1.187,5.321,5.321,0,0,0,0,10.632,3.622,3.622,0,0,0,2.8-1.209h.08v.766c0,2.034-1.086,3.121-2.839,3.121a2.942,2.942,0,0,1-2.679-1.894l-2.034.846a5.066,5.066,0,0,0,4.712,3.141c2.739,0,5.055-1.611,5.055-5.537V33.249H99.2Zm-2.677,7.35a3.233,3.233,0,0,1,0-6.444,3,3,0,0,1,2.839,3.242A2.97,2.97,0,0,1,96.521,41.466ZM127,27.612h-5.589V43.238h2.331v-5.92H127a4.86,4.86,0,1,0,0-9.706Zm.06,7.531h-3.317V29.787h3.317a2.679,2.679,0,1,1,0,5.356ZM141.472,32.9a4.381,4.381,0,0,0-4.162,2.391l2.071.865a2.209,2.209,0,0,1,2.131-1.146,2.246,2.246,0,0,1,2.452,2.011v.16a5.159,5.159,0,0,0-2.432-.6c-2.231,0-4.5,1.226-4.5,3.517a3.611,3.611,0,0,0,3.88,3.439,3.291,3.291,0,0,0,2.976-1.529h.08v1.206h2.251V37.221C146.216,34.447,144.146,32.9,141.472,32.9Zm-.281,8.564c-.765,0-1.83-.381-1.83-1.326,0-1.206,1.326-1.669,2.473-1.669a4.161,4.161,0,0,1,2.131.523A2.827,2.827,0,0,1,141.191,41.463Zm13.227-8.222-2.674,6.775h-.08l-2.775-6.775h-2.513l4.161,9.469-2.373,5.267H150.6l6.414-14.736Zm-21.009,10h2.333V27.612h-2.333Z" transform="translate(0.26 -5.738)"/>
    <g transform="translate(12.466 8.926)">
        <path class="c" d="M20.55,17.556a2.509,2.509,0,0,0-.577,1.756V46.957a2.507,2.507,0,0,0,.577,1.756l.092.09L36.129,33.317v-.365L20.643,17.465Z" transform="translate(-19.973 -17.059)"/>
        <path class="d" d="M38.06,36.418,32.9,31.253v-.365l5.164-5.164.116.067,6.116,3.475c1.746.992,1.746,2.616,0,3.609L38.178,36.35Z" transform="translate(-16.742 -14.995)"/>
        <path class="e" d="M41.294,35.281,36.014,30,20.435,45.58a2.034,2.034,0,0,0,2.6.076l18.26-10.375" transform="translate(-19.858 -13.925)"/>
        <path class="f" d="M41.294,27.936,23.034,17.561a2.034,2.034,0,0,0-2.6.076L36.014,33.216Z" transform="translate(-19.858 -17.14)"/>
        <g transform="translate(0 21.239)">
            <path class="g" d="M41.177,34.132,23.034,44.441a2.081,2.081,0,0,1-2.5.014h0l-.094.092h0l.093.091h0a2.081,2.081,0,0,0,2.5-.014l18.26-10.375Z" transform="translate(-19.858 -34.132)"/>
            <path class="h" d="M20.55,42.669a2.507,2.507,0,0,1-.577-1.756V41.1a2.5,2.5,0,0,0,.577,1.755l.094-.092Z" transform="translate(-19.973 -32.437)"/>
        </g>
        <path class="h" d="M43.261,31.623l-6.232,3.541.116.116,6.116-3.475a2.194,2.194,0,0,0,1.31-1.8h0A2.326,2.326,0,0,1,43.261,31.623Z" transform="translate(-15.709 -13.925)"/>
        <path class="i" d="M23.149,17.744l24.376,13.85a2.326,2.326,0,0,1,1.31,1.622h0a2.191,2.191,0,0,0-1.31-1.8L23.149,17.561c-1.747-.992-3.176-.167-3.176,1.832v.184C19.973,17.576,21.4,16.751,23.149,17.744Z" transform="translate(-19.973 -17.14)"/>
    </g>
    <g transform="translate(51.672 6.823)">
        <path class="j" d="M51.338,24.5V17h2.294A3.73,3.73,0,0,1,56.4,18.042a3.671,3.671,0,0,1,1.036,2.707A3.673,3.673,0,0,1,56.4,23.457,3.73,3.73,0,0,1,53.632,24.5Zm.963-.921h1.331a2.808,2.808,0,0,0,2.057-.745,2.777,2.777,0,0,0,.76-2.084,2.609,2.609,0,0,0-2.817-2.829H52.3Z" transform="translate(-51.338 -15.073)"/>
        <path class="j" d="M57.3,24.5V17h.963v7.5Z" transform="translate(-49.848 -15.073)"/>
        <path class="j" d="M61.658,24.7a2.8,2.8,0,0,1-1.6-.534,2.472,2.472,0,0,1-1.021-1.5l.88-.355a2.008,2.008,0,0,0,.644,1.041,1.629,1.629,0,0,0,1.1.424,1.751,1.751,0,0,0,1.074-.329,1.058,1.058,0,0,0,.445-.9,1.15,1.15,0,0,0-.445-.969,4.6,4.6,0,0,0-1.409-.634,3.76,3.76,0,0,1-1.509-.812,1.7,1.7,0,0,1-.514-1.272,1.859,1.859,0,0,1,.64-1.4,2.339,2.339,0,0,1,1.665-.6,2.407,2.407,0,0,1,1.55.476,2.212,2.212,0,0,1,.775,1.042l-.879.366a1.309,1.309,0,0,0-.466-.66,1.639,1.639,0,0,0-1.906.006.942.942,0,0,0-.394.769.877.877,0,0,0,.361.707,3.5,3.5,0,0,0,1.064.519,8.876,8.876,0,0,1,.927.346,4.23,4.23,0,0,1,.752.445,1.747,1.747,0,0,1,.576.691,2.224,2.224,0,0,1,.2.957,2.069,2.069,0,0,1-.225.975,1.843,1.843,0,0,1-.6.681,3.012,3.012,0,0,1-1.681.512Z" transform="translate(-49.413 -15.106)"/>
        <path class="j" d="M65.207,24.5h-.964V17H66.8a2.367,2.367,0,0,1,1.649.634,2.178,2.178,0,0,1,0,3.195,2.367,2.367,0,0,1-1.649.634H65.207Zm0-3.96H66.82a1.242,1.242,0,0,0,.974-.408,1.29,1.29,0,0,0,0-1.8,1.24,1.24,0,0,0-.974-.41H65.207Z" transform="translate(-48.112 -15.073)"/>
        <path class="j" d="M75.364,23.565a3.894,3.894,0,0,1-5.5,0,4.053,4.053,0,0,1,0-5.562,3.882,3.882,0,0,1,5.494,0,4.04,4.04,0,0,1,0,5.557Zm-4.787-.629a2.885,2.885,0,0,0,4.075,0,3.2,3.2,0,0,0,0-4.3,2.885,2.885,0,0,0-4.075,0,3.2,3.2,0,0,0,0,4.3Z" transform="translate(-46.983 -15.106)"/>
        <path class="j" d="M76.009,24.5V17h1.172l3.645,5.834h.043l-.043-1.445V17h.965v7.5H80.785l-3.814-6.117H76.93l.041,1.446V24.5Z" transform="translate(-45.17 -15.073)"/>
        <path class="j" d="M82.009,24.885v-7.5h.962v7.5Zm.9-8.086h-.837l.545-1.341h1.047Z" transform="translate(-43.67 -15.458)"/>
        <path class="j" d="M86.165,24.5,83.525,17h1.069l2.053,6.086h.042L88.826,17h1.067L87.17,24.5Z" transform="translate(-43.291 -15.073)"/>
        <path class="j" d="M93.871,17.921H90.456V20.3h3.08v.9h-3.08v2.379h3.415V24.5H89.492V17h4.379Z" transform="translate(-41.8 -15.073)"/>
        <path class="j" d="M94.2,24.5V17h.964v6.579h3.246V24.5Z" transform="translate(-40.622 -15.073)"/>
        <path class="j" d="M100.554,24.5V17h1.172l3.645,5.834h.041l-.041-1.445V17h.965v7.5H105.33l-3.814-6.117h-.041l.041,1.446V24.5Z" transform="translate(-39.034 -15.073)"/>
        <path class="j" d="M112.78,23.565a3.894,3.894,0,0,1-5.5,0,4.053,4.053,0,0,1,0-5.562,3.882,3.882,0,0,1,5.494,0,4.04,4.04,0,0,1,.005,5.557Zm-4.787-.629a2.885,2.885,0,0,0,4.075,0,3.2,3.2,0,0,0,0-4.3,2.885,2.885,0,0,0-4.075,0,3.2,3.2,0,0,0,0,4.3Z" transform="translate(-37.629 -15.106)"/>
    </g>
</svg>