<svg xmlns="http://www.w3.org/2000/svg" width="75" height="75" viewBox="0 0 75 75"><defs><style>.a{fill:none;}.b{fill:#fff;}</style></defs><rect class="a" width="75" height="75"/><path class="b" d="M64.04,24.17a7.85,7.85,0,0,0,2.1-5.357A7.748,7.748,0,0,0,58.461,11c-3.192,0-10.547,4.774-13.489,9.062-3.039-4.288-10.367-8.923-13.433-8.923a7.757,7.757,0,0,0-7.674,7.813,7.856,7.856,0,0,0,1.957,5.2H11V42.821h4.052V79H74.962V42.835H79V24.17H64.04ZM58.461,13.9a4.879,4.879,0,0,1,4.774,5.065,5.06,5.06,0,0,1-3.913,4.982H47.581c-.749-.222-.985-.486-.985-.638,0-2.47,8.673-9.409,11.865-9.409Zm-26.922,0c3.039,0,11.865,6.939,11.865,9.409,0,.222-.513.472-.888.638H30.692a5.06,5.06,0,0,1-3.913-4.982A4.956,4.956,0,0,1,31.539,13.9Zm4.774,62.2H17.939V42.835H36.313Zm0-36.012H13.9V27.07H36.327V40.087ZM50.773,76.1H39.2V27.056H50.773Zm21.274,0H53.673V42.835H72.047Zm4.038-36.012H53.673V27.07H76.1V40.087Z" transform="translate(-7.875 -8.917)"/></svg>