<svg xmlns="http://www.w3.org/2000/svg" width="23" height="23" viewBox="0 0 23 23"><g transform="translate(18.238 19.137)"><path d="M406.449,426a.449.449,0,1,0,.449.449A.449.449,0,0,0,406.449,426Z" transform="translate(-406 -426)"/></g><path d="M20.035,2.131V1.348A1.349,1.349,0,0,0,18.687,0H4.312A1.349,1.349,0,0,0,2.965,1.348v.783C.035,7.542,0,7.382,0,7.636H0v.9A2.236,2.236,0,0,0,1.168,10.45v12.1A.449.449,0,0,0,1.617,23H21.383a.449.449,0,0,0,.449-.449V10.45A2.261,2.261,0,0,0,23,8.535v-.9h0C23,7.379,22.937,7.489,20.035,2.131Zm1.756,5.057h-2.78L17.514,2.7H19.32Zm-6.248.9h2.7v.449a1.348,1.348,0,1,1-2.7,0Zm-.069-.9L14.726,2.7h1.841l1.5,4.492ZM3.863,1.348A.45.45,0,0,1,4.312.9H18.687a.45.45,0,0,1,.449.449V1.8H3.863ZM14.645,8.086v.449a1.348,1.348,0,1,1-2.7,0V8.086Zm-2.7-.9V2.7h1.866l.749,4.492Zm-3.513,0L9.185,2.7h1.866V7.187Zm2.614.9v.449a1.348,1.348,0,1,1-2.7,0V8.086Zm-6.115-.9L6.433,2.7H8.274L7.526,7.187Zm2.521.9v.449a1.348,1.348,0,1,1-2.7,0V8.086ZM3.68,2.7H5.486l-1.5,4.492H1.209ZM.9,8.535V8.086H3.863v.449A1.476,1.476,0,0,1,2.381,9.883a1.506,1.506,0,0,1-.587-.123A1.4,1.4,0,0,1,.9,8.535ZM9.254,22.1H4.762V18.238H9.254Zm0-4.762H4.762V13.477H9.254ZM20.934,22.1H10.152V13.027a.449.449,0,0,0-.449-.449H4.312a.449.449,0,0,0-.449.449V22.1h-1.8V10.759a2.334,2.334,0,0,0,.314.022,2.476,2.476,0,0,0,1.64-.643,2.429,2.429,0,0,0,.27-.288,2.243,2.243,0,0,0,3.616.031,2.244,2.244,0,0,0,3.594,0,2.244,2.244,0,0,0,3.594,0,2.243,2.243,0,0,0,3.616-.031,2.432,2.432,0,0,0,.27.288,2.476,2.476,0,0,0,1.64.643,2.324,2.324,0,0,0,.314-.022ZM22.1,8.535a1.4,1.4,0,0,1-.929,1.239,1.492,1.492,0,0,1-.554.109,1.476,1.476,0,0,1-1.482-1.348V8.086H22.1Z"/><g transform="translate(11.949 12.578)"><path d="M273.637,284.762h-.449v-4.312a.449.449,0,0,0-.449-.449h-5.391a.449.449,0,0,0-.449.449v4.313h-.449a.449.449,0,0,0,0,.9h7.188a.449.449,0,0,0,0-.9Zm-1.348,0H267.8V280.9h4.492Z" transform="translate(-266 -280)"/></g><g transform="translate(12.848 19.137)"><path d="M290.043,426h-3.594a.449.449,0,0,0,0,.9h3.594a.449.449,0,0,0,0-.9Z" transform="translate(-286 -426)"/></g></svg>