<svg xmlns="http://www.w3.org/2000/svg" xmlns:xlink="http://www.w3.org/1999/xlink" width="202.338" height="48" viewBox="0 0 202.338 48"><defs><style>.a{fill:none;}.b{fill:#1b1b26;}.c{fill:url(#a);}.d{fill:url(#b);}.e{fill:url(#c);}</style><linearGradient id="a" x1="0.5" x2="0.5" y2="1" gradientUnits="objectBoundingBox"><stop offset="0" stop-color="#ffc100"/><stop offset="1" stop-color="#ff7b02"/></linearGradient><linearGradient id="b" x1="-273.57" y1="-87.617" x2="-273.57" y2="-88.511" gradientUnits="objectBoundingBox"><stop offset="0" stop-color="#3045bf"/><stop offset="1" stop-color="#3078ff"/></linearGradient><linearGradient id="c" x1="0.042" y1="0.042" x2="0.961" y2="0.961" gradientUnits="objectBoundingBox"><stop offset="0.325" stop-color="#3078ff"/><stop offset="0.869" stop-color="#0bf"/></linearGradient></defs><rect class="a" width="202.338" height="48"/><g transform="translate(1.839 1.846)"><path class="b" d="M147.467,12.53h7.993V44.757h-6.127l-14.6-17.264V44.757H126.78V12.53H132.6l14.864,17.5Z" transform="translate(-62.641 -6.168)"/><path class="b" d="M200.065,52.663H192.37V28.59h7.695Z" transform="translate(-95.048 -14.073)"/><path class="b" d="M224.195,52.663H216.5V28.59h7.695Z" transform="translate(-106.971 -14.073)"/><path class="b" d="M242.251,49.051a12.3,12.3,0,0,1-3.541-9.074,12.223,12.223,0,0,1,3.541-9.074,12.645,12.645,0,0,1,9.3-3.554c5,0,9.385,2.442,11.428,7.022L256.857,37.6a5.731,5.731,0,0,0-5.13-3.1,5.332,5.332,0,0,0-3.956,1.569,5.459,5.459,0,0,0-1.518,3.884,5.322,5.322,0,0,0,5.388,5.54,5.633,5.633,0,0,0,5.17-3.092l6.127,3.666a12.59,12.59,0,0,1-11.474,6.5A12.451,12.451,0,0,1,242.251,49.051Z" transform="translate(-117.944 -13.463)"/><path class="b" d="M309.45,28.019h7.214V52.091H309.45V50a10.132,10.132,0,0,1-7.083,2.706,10.849,10.849,0,0,1-8.433-3.666,12.964,12.964,0,0,1-3.3-9.074,12.586,12.586,0,0,1,3.3-8.982,10.979,10.979,0,0,1,8.433-3.554,9.815,9.815,0,0,1,7.083,2.793Zm-1.695,8.073a5.378,5.378,0,0,0-3.956-1.66,5.242,5.242,0,0,0-3.956,1.66,5.468,5.468,0,0,0-1.563,3.925,5.543,5.543,0,1,0,11.084,0A5.331,5.331,0,0,0,307.755,36.092Z" transform="translate(-143.597 -13.502)"/><path class="b" d="M360.624,46.391h10.867v6.316H350V47.3l10.735-12.3H350.506V28.68h20.51v5.494Z" transform="translate(-172.932 -14.118)"/><path class="b" d="M195.554,15.985a4.334,4.334,0,0,1-4.346-4.453,4.391,4.391,0,0,1,8.778,0,4.3,4.3,0,0,1-4.432,4.453Z" transform="translate(-94.474 -3.581)"/><path class="b" d="M219.684,15.985a4.334,4.334,0,0,1-4.346-4.453,4.391,4.391,0,0,1,8.777,0,4.3,4.3,0,0,1-4.432,4.453Z" transform="translate(-106.396 -3.581)"/><g transform="translate(0 0)"><rect class="c" width="10.215" height="10.215" rx="5.107" transform="translate(30.644 0)"/><rect class="d" width="10.239" height="37.623" transform="translate(10.247 40.957) rotate(180)"/><path class="e" d="M510.894,358.791,494,341.9h-7.24v7.24l16.894,16.894h0l16.822,16.823h7.24v-7.24l-16.823-16.823Z" transform="translate(-486.76 -341.897)"/></g></g></svg>